<svg version="1.1" xmlns="http://www.w3.org/2000/svg" viewBox="0 0 1663.4117586650545 874.6207754952568" width="3326.823517330109" height="1749.2415509905136">
  <!-- svg-source:excalidraw -->
  
  <defs>
    <style>
      @font-face {
        font-family: "Virgil";
        src: url("https://excalidraw.com/Virgil.woff2");
      }
      @font-face {
        font-family: "Cascadia";
        src: url("https://excalidraw.com/Cascadia.woff2");
      }
    </style>
  </defs>
  <rect x="0" y="0" width="1663.4117586650545" height="874.6207754952568" fill="#ffffff"></rect><g transform="translate(65.88550046890487 313.1709057035897) rotate(0 250.87492370605463 201.23533848353793)"><path d="M0.08316181600093842 -0.09597981870174409 C171.60713471700168 -1.435960403057306, 342.81029157796337 -1.557077518078058, 502.41795328557487 0.5386180549860001 M0.17535408288240434 -0.28306518346071247 C127.61328365880246 1.1181112144781395, 254.91867691880452 0.6441368435217185, 501.74615491181606 0.1593183442950249 M502.73010471833305 0.8473706237836532 C501.5920259977346 125.63275689070845, 500.97847478196655 251.79027827270903, 500.8198257270482 403.31474326769177 M501.68239106454985 -0.4592248907229653 C501.444765276994 84.55673235786159, 502.32217237724075 168.1906089332666, 501.81709497218264 402.9764468744275 M502.21729401051994 401.78542884545664 C401.23266157320506 400.88121572612687, 299.5098302833512 400.1196139919655, 0.292887482047081 402.8423228617225 M501.93375032693143 402.84827834474186 C318.67119690945407 403.2703307638123, 135.59261108230868 403.79887409305115, -0.2926870033144951 402.17633997308354 M-0.834359926747314 401.78734814698146 C0.90879616068078 275.8051145531004, 1.9115365377434483 148.51684357269326, 0.35522524716895937 -0.046366651036998836 M0.4569236057894307 402.0417767750161 C1.1148500732576063 261.67481203553785, 0.823419136526147 119.81247094480494, -0.14195771061136114 -0.11589198078693809" stroke="#364fc7" stroke-width="1" fill="none"></path></g><g transform="translate(79.13553098648299 323.95563470749596) rotate(0 112 12.5)"><text x="0" y="18" font-family="Virgil, Segoe UI Emoji" font-size="20px" fill="#364fc7" text-anchor="start" style="white-space: pre;" direction="ltr">Web - Phoenix LiveView</text></g><g transform="translate(467.3280969044524 478.5036693754647) rotate(0 29.760772705078125 62.674163818359375)"><path d="M-0.14445499330759048 -0.986981950700283 C23.66108420157882 -1.4351056396313402, 46.004671186992574 -0.12753923528868882, 58.530467711389065 -0.31159719079732895 M0.21125038340687752 -0.7327425666153431 C14.342545912202946 0.19668777008527516, 29.22831608089159 -1.2668774602842927, 59.874668318778276 -0.4040779061615467 M58.815725050866604 1.345436729490757 C60.48570236736983 47.99319278654091, 59.561554999892415 93.54882390462622, 61.28669115155935 126.69841090589762 M60.492034155875444 0.4622446112334728 C59.77490514270461 49.115613827410044, 61.73172789565719 98.22807041541279, 59.05134518817067 126.31341217085719 M58.84300561994314 123.55411425977945 C43.59852794973656 124.62779406841551, 29.176766038807315 123.2272153311566, 1.2171928510069847 124.46443859487772 M59.624491054564714 124.63752887770534 C35.36487257319179 126.6713303117745, 12.861925997336442 126.63861987876821, 0.7546219415962696 125.70407043024898 M-1.3050449267029762 125.5246707573533 C-0.8901943766538376 86.37046242611598, -0.9511673056546921 48.784773687163806, -1.8539305105805397 0.9203237667679787 M-0.6822724752128124 125.37367663905025 C0.09336865666313543 82.47140030088538, 0.7937750888149299 38.24085781892168, 0.2874770946800709 0.8068373017013073" stroke="#364fc7" stroke-width="1" fill="none"></path></g><g transform="translate(481.26871335953047 510.1998320079982) rotate(0 18.19410522460936 32.48947361537387)"><text x="18.19410522460938" y="45.97894723074779" font-family="Virgil, Segoe UI Emoji" font-size="51.98315778459823px" fill="#364fc7" text-anchor="middle" style="white-space: pre;" direction="ltr">5</text></g><g transform="translate(396.32422117203004 478.63162958054284) rotate(0 29.760772705078097 62.674163818359375)"><path d="M1.085131086409092 0.3626720532774925 C21.409081172713083 2.473376561691341, 45.68167780442723 1.1157727733154865, 58.577959693968296 0.17389389127492905 M-0.3466799445450306 -0.5876031331717968 C11.808778799602193 0.43163060554014687, 24.537704798388088 0.7549618423794413, 59.582143407315016 -0.8740791492164135 M58.14905611425638 0.5691976174712181 C59.02479985375177 27.460394315522194, 59.88710716385614 57.044912241600514, 58.29335109144449 127.18036910146475 M60.428934674710035 0.5871892757713795 C60.03517547097437 27.38089611162084, 59.628529338505196 56.203003368612876, 59.838512878865004 125.68500967696309 M59.31311694532633 124.29790183156729 C40.687437497578614 123.76917089174202, 23.217924126491056 124.97493685434273, -1.3147056922316551 127.18985792249441 M59.01809833571315 125.45459719374776 C39.889758009546014 125.8778317023716, 21.399093922392552 125.77433646216011, 0.7979577593505383 125.5673292465508 M-1.8404110297560692 126.8675102815032 C-0.32632609577181704 94.4926480515596, -1.6081990835190094 62.78327501839334, 1.7307180538773537 -0.5088212862610817 M0.19803271815180779 124.58566554263234 C-1.418987635426331 95.48692769575776, -0.5791051424072271 66.07503753565075, -0.9574907012283802 0.9663610048592091" stroke="#364fc7" stroke-width="1" fill="none"></path></g><g transform="translate(324.50781492202987 479.66983758835534) rotate(0 29.760772705078125 62.674163818359375)"><path d="M-0.43729809671640396 -0.8164265975356102 C10.650968547558046 1.5921976116224936, 24.24969509173484 -1.4508295509293863, 61.048560582101345 -1.4506350383162498 M-0.4816892556846142 0.3779388479888439 C18.521316235148586 -0.6825347047823629, 39.03673093618686 -0.5129784446734151, 59.13813813403249 0.5473742298781872 M57.542863331735134 -0.9626074656844139 C60.63752049548896 41.76410657820541, 56.81823915584357 82.61768982375538, 59.96124001592398 125.84664265066385 M58.94150860980153 -0.9563899226486683 C59.80236825092741 25.8552921452809, 59.49209734543272 52.86617388972414, 58.57063241675496 125.8272231630981 M58.705115519464016 123.46107403188944 C37.48724734058075 123.97338042652181, 13.736382030349837 126.45414171611837, -0.12587455660104752 125.25760594755411 M59.07490010932088 125.33301101252437 C40.014788758270264 124.47933816309312, 19.258346383049727 124.59268867369035, -0.4047216586768627 125.02914164587855 M1.0804643258452415 124.44180051237345 C2.2473970494133186 80.14383341817431, 0.1765440544944954 37.21150505688533, 1.6347510442137718 -0.9323447570204735 M-0.44662706181406975 126.21342680975795 C0.27084889322430405 95.86747406223128, 1.4451284638038329 65.51930497559329, 0.5658356733620167 -0.5462111420929432" stroke="#364fc7" stroke-width="1" fill="none"></path></g><g transform="translate(251.75787595718612 477.8771740141366) rotate(0 29.760772705078125 62.674163818359375)"><path d="M-1.901825986802578 0.9577910527586937 C17.945159965743258 -1.681876413747002, 31.90924949494925 -1.215612404271294, 57.63429180532694 0.3812412843108177 M-0.06293727830052376 -0.04536084458231926 C14.963601703742938 -1.4064445823216851, 28.209848174800072 -0.856985720970672, 59.506228785961866 0.6512335129082203 M58.712102092802525 -0.6383719816803932 C60.733778195861106 31.811341437234866, 57.812500911238914 68.59060655292747, 58.61501828581095 126.37750836461782 M60.338920932263136 -0.46617237851023674 C58.261802959436196 34.137903866941066, 59.0444344758928 69.53429654915995, 60.38664458319545 124.55050941184163 M60.65321675688028 124.25590535253286 C38.274910709262 123.95227112610394, 18.127477769553884 126.02585019905621, -1.7975276336073875 124.89192577451468 M58.57752154394984 124.37228198722005 C37.91294396603432 125.88535386311207, 17.82915786150747 126.4157010911623, 0.5167666487395763 126.19122894480824 M-1.9180816039443016 125.63122364133596 C-0.05673456549253164 92.90128405576232, 1.2244875395337136 57.066814135716, -0.5482922419905663 1.3851868733763695 M-0.9839762635529041 125.83010967448354 C0.4353732503059814 84.57455200284659, 0.7365060485008667 44.72288303360223, -0.18543626740574837 0.8059360571205616" stroke="#364fc7" stroke-width="1" fill="none"></path></g><g transform="translate(176.24533323257674 479.53238641648034) rotate(0 29.760772705078125 62.674163818359375)"><path d="M-0.46969350427389145 -0.5751448050141335 C21.543820462738836 -0.8046656020328987, 40.02185011578672 1.1977235905482781, 60.15470401197672 -0.8011315241456032 M0.17167435213923454 0.8926521129906178 C18.793323776892542 0.37991879019590435, 38.20511526097202 -0.5996102329745668, 59.71482799574733 -0.05631093308329582 M61.347809709608555 -0.3960011377930641 C59.410760553291276 33.48931191778922, 59.145130546501115 70.54817081077385, 57.85048023611307 125.36131139844656 M59.53039978072047 -0.5906784944236279 C57.69316178428892 28.820031188642474, 58.15205901729826 59.950669613163655, 60.47801433131099 125.05962069705129 M57.98248974233866 125.59218641370535 C41.99995165779194 126.45396864103894, 27.267573790530378 126.04560649084668, 1.3539117947220802 124.02457066625357 M59.89688811823726 125.51618941500783 C39.76132859076631 125.02459661966617, 18.566057606996537 126.66389541631992, 0.868958692997694 124.85339732840657 M-1.1318155154585838 123.4815809354186 C-2.4456575164605763 95.81139043981, -1.3735342273522997 68.45878875035373, -1.2565101012587547 -0.9990978613495827 M-0.43992020562291145 125.96008201315999 C0.7829086641161643 83.34598097770052, 1.3762739757387839 42.649318449321115, -0.14358891919255257 0.8192816562950611" stroke="#364fc7" stroke-width="1" fill="none"></path></g><g transform="translate(103.28518918960799 479.78177606491784) rotate(0 29.760772705078125 62.674163818359375)"><path d="M0.24385877698659897 -0.6929760798811913 C21.21648592126487 1.8612985844441823, 40.67296163732048 1.8119466538258961, 58.19778843969107 0.9272786751389503 M0.16786177828907967 0.8558997921645641 C18.986111520742156 0.053335639515146305, 40.47265426246281 0.6455489125635472, 59.02661510184407 -0.7809125371277332 M57.654798708856106 -1.7300184592604637 C58.92129842798228 44.102993692864565, 59.3845869735908 88.26526762477475, 58.52244754880667 125.89546243101358 M60.13329978659749 -0.004494804888963699 C57.919872274313036 30.319334107698, 58.25682960978514 59.31733828273614, 60.34082706645131 124.89315865561366 M57.668483696877956 124.20636598020792 C38.831028162517285 122.89657405215007, 16.41833916868395 126.08145979243022, 0.6351544484496117 124.88870874792337 M58.725557405501604 126.21135495230556 C35.688320268122446 124.10839134781985, 14.243448395635866 125.65245551198153, 0.292722899466753 125.3754077963531 M-1.0043928995728493 126.29867235571146 C-1.940901917090689 96.97737439908872, -0.2911967455056059 70.48973275350113, 0.8131308183073997 -1.3622694835066795 M0.552178580313921 125.56057796999812 C-0.8932060081263784 76.32290010830818, -0.09147358720505272 27.3001689934444, 0.833718616515398 0.4313378147780895" stroke="#364fc7" stroke-width="1" fill="none"></path></g><g transform="translate(409.07484861343664 511.455663045247) rotate(0 18.19410522460936 32.48947361537387)"><text x="18.19410522460938" y="45.97894723074779" font-family="Virgil, Segoe UI Emoji" font-size="51.98315778459823px" fill="#364fc7" text-anchor="middle" style="white-space: pre;" direction="ltr">5</text></g><g transform="translate(341.6286205860923 510.224217732747) rotate(0 15 32.5)"><text x="15" y="46" font-family="Virgil, Segoe UI Emoji" font-size="51.98315778459823px" fill="#364fc7" text-anchor="middle" style="white-space: pre;" direction="ltr">4</text></g><g transform="translate(272.31454709976435 510.8322826567147) rotate(0 10 32.5)"><text x="10" y="46" font-family="Virgil, Segoe UI Emoji" font-size="51.98315778459823px" fill="#364fc7" text-anchor="middle" style="white-space: pre;" direction="ltr">7</text></g><g transform="translate(196.70831541031112 509.0210033598397) rotate(0 10 32.5)"><text x="10" y="46" font-family="Virgil, Segoe UI Emoji" font-size="51.98315778459823px" fill="#364fc7" text-anchor="middle" style="white-space: pre;" direction="ltr">7</text></g><g transform="translate(120.65194944351424 510.4996410551522) rotate(0 13 32.5)"><text x="13" y="46" font-family="Virgil, Segoe UI Emoji" font-size="51.98315778459823px" fill="#364fc7" text-anchor="middle" style="white-space: pre;" direction="ltr">6</text></g><g transform="translate(104.02469114273299 448.0230785551522) rotate(0 50 12.5)"><text x="0" y="18" font-family="Virgil, Segoe UI Emoji" font-size="20px" fill="#364fc7" text-anchor="start" style="white-space: pre;" direction="ltr">Block time</text></g><g transform="translate(725.8536357576884 379.1963181268602) rotate(0 66.51242065429688 113.87791442871094)"><path d="M0.45964642614126205 -0.40736373513936996 C31.927836459631433 -2.492249145820831, 62.94017779927395 -0.2517527488023985, 131.40120884031057 1.6371235027909279 M0.11695380881428719 -0.5226947255432606 C49.4765402618413 -0.13052550748211844, 101.57778397194839 0.07488127752917306, 132.84627063944936 0.21522973105311394 M133.55586043713893 1.0177661642939455 C131.72669466329523 53.65993950447558, 133.78008353322826 107.20202222959051, 132.28711924373403 227.14993502829097 M132.4246656784861 0.44455332325832386 C134.01779028381202 81.294968257083, 133.3236891094751 164.7508932788473, 133.7350071844194 228.27801241207447 M132.5582673177123 225.76271501928568 C96.76030271056872 225.75924347844295, 63.24428237832748 226.53231739010982, 0.603146992623806 226.2643098011613 M132.23822518065572 227.00871716067195 C100.71388731742233 228.36624788504795, 67.58184147689403 227.59699188929753, 0.7653096504509449 228.01796577498317 M1.4858970584052689 228.1442711090607 C0.16857921966675132 169.69391183964424, 0.3589703595489704 107.8386430070541, 1.3644727553561073 -1.014638497909874 M0.5277986063651435 226.9836740716229 C-0.8135918677560744 139.15189530320856, -1.7305584524665631 51.52602458198846, 0.68266206347766 -0.448094043211923" stroke="#0b7285" stroke-width="1" fill="none"></path></g><g transform="translate(737.8510112459696 431.16448829287583) rotate(0 57 25)"><text x="0" y="18" font-family="Virgil, Segoe UI Emoji" font-size="20px" fill="#0b7285" text-anchor="start" style="white-space: pre;" direction="ltr">  Store</text><text x="0" y="43" font-family="Virgil, Segoe UI Emoji" font-size="20px" fill="#0b7285" text-anchor="start" style="white-space: pre;" direction="ltr">(GenServer)</text></g><g transform="translate(1310.3514559306795 413.9538952055433) rotate(0 171.5301513671875 81.58929443359375)"><path d="M0.9255701022338736 -0.9398382229834418 C118.2509690960544 -1.9250989716997902, 235.76801802465835 -1.7575527459523723, 343.88709805229934 -0.6534536316864378 M-0.38720681605849044 -0.2434144935737314 C131.80964633338016 -0.8195116874210049, 263.7135990498747 -1.9731300716224653, 342.5167509689639 -0.5378996073434813 M341.5977305546403 0.1783120259642601 C341.00067072906825 43.70753946142272, 341.05105024376246 86.38199242178352, 341.64217964559793 164.9589705094695 M342.55579183623195 0.7544357366859913 C343.75891729972216 55.46419992624592, 344.9916945376143 110.35336551351092, 342.7781714014709 162.41701825335622 M343.25912709078995 163.28116134067284 C232.87884376669166 162.70355288635818, 121.9282336951589 160.84350508214348, 0.7015415776782324 162.70457867236766 M342.8649791193792 162.7109070626167 C246.34785285382506 164.24351257405263, 149.94723923066005 164.4082073206274, 0.6550424550980184 163.3480032464072 M0.40362779051065445 162.69566460698843 C0.3184818524421873 112.81290065798616, 0.7671615380348387 60.15690520263624, -0.9976476058363914 -1.4475813284516335 M0.9407269768416882 163.01048799231648 C-0.05962955461733599 116.28315876316759, 0.48046732438809614 67.96399069734879, -0.9696220345795155 -0.6252311877906322" stroke="#495057" stroke-width="1" fill="none"></path></g><g transform="translate(1327.610367063492 479.3705211821057) rotate(0 158 37.5)"><text x="0" y="18" font-family="Virgil, Segoe UI Emoji" font-size="20px" fill="#495057" text-anchor="start" style="white-space: pre;" direction="ltr">https://mempool.space/api/blocks</text><text x="0" y="43" font-family="Virgil, Segoe UI Emoji" font-size="20px" fill="#495057" text-anchor="start" style="white-space: pre;" direction="ltr"></text><text x="0" y="68" font-family="Virgil, Segoe UI Emoji" font-size="20px" fill="#495057" text-anchor="start" style="white-space: pre;" direction="ltr">Returns JSON data</text></g><g transform="translate(1318.734163798983 422.319083804176) rotate(0 65 12.5)"><text x="0" y="18" font-family="Virgil, Segoe UI Emoji" font-size="20px" fill="#495057" text-anchor="start" style="white-space: pre;" direction="ltr">External API</text></g><g transform="translate(1014.2543247767854 432.8327331542969) rotate(0 61 25)"><text x="0" y="18" font-family="Virgil, Segoe UI Emoji" font-size="20px" fill="#c92a2a" text-anchor="start" style="white-space: pre;" direction="ltr">DataWorker</text><text x="0" y="43" font-family="Virgil, Segoe UI Emoji" font-size="20px" fill="#c92a2a" text-anchor="start" style="white-space: pre;" direction="ltr">(GenServer)</text></g><g transform="translate(1003.584189278739 380.0869075230189) rotate(0 66.51242065429688 113.87791442871094)"><path d="M0.8952388390898705 -1.925998292863369 C35.436473683983856 -2.7549180557780413, 74.91224069440518 0.3882806727833601, 134.68277140706778 1.9437834396958351 M-0.48851291462779045 0.9930980019271374 C42.20484025868675 0.26370873901706315, 84.22005088439387 0.8203156277881203, 132.47364159300923 -0.9614709801971912 M132.53822955728685 1.4645946787661723 C131.4665560210045 88.10640306811887, 129.8966836307313 174.89132808552597, 133.42546061022622 227.79797876100764 M132.97690688359648 -0.2869451547850739 C133.61022975275867 60.34814640243191, 134.63704203765414 119.11666768736497, 132.2434709038714 227.15864396821144 M131.6778654679656 227.885025896132 C98.57686630455567 226.8313158815205, 63.57006727542307 227.54371321848035, 0.5135395154356956 228.8217784538865 M132.3650964088738 227.2097744755447 C102.81598605388542 228.6633040073451, 73.15343041691463 227.66834381847943, -0.35911230370402336 227.0458167605102 M0.22142532978394638 227.72140541347534 C1.366666299996558 180.6279431863592, 0.8838497959941367 135.2020212237095, -0.4189587681722524 -0.862373743678002 M0.3765323198819305 227.84909871512664 C1.0411472121398067 168.6408930706959, 1.967439817393726 110.6822858425233, -0.5050615781225807 0.43943346641401354" stroke="#c92a2a" stroke-width="1" fill="none"></path></g><g transform="translate(1219.3748256138392 354.10365949358254) rotate(0 105.5 25)"><text x="0" y="18" font-family="Virgil, Segoe UI Emoji" font-size="20px" fill="#c92a2a" text-anchor="start" style="white-space: pre;" direction="ltr">Fetch new block data</text><text x="0" y="43" font-family="Virgil, Segoe UI Emoji" font-size="20px" fill="#c92a2a" text-anchor="start" style="white-space: pre;" direction="ltr">every 30 seconds</text></g><g><g transform="translate(1166.4613560267853 466.8735255051048) rotate(0 60.590175052941845 1.173281367697541)"><path d="M0.9967337384819983 0.5342902645468712 C21.169726655632275 0.5400693163607192, 101.04943869784482 1.1787601219284891, 121.11946988403807 1.1188241468868683 M0.06088022184558217 -0.23081129190511995 C20.097188511760923 0.48132650232463303, 100.18935204562739 2.3859709342270703, 120.34223838997083 2.577374027300207" stroke="#c92a2a" stroke-width="1" fill="none"></path></g><g transform="translate(1166.4613560267853 466.8735255051048) rotate(0 60.590175052941845 1.173281367697541)"><path d="M92.86281492871306 12.874042857285032 C100.33748660008254 10.14157138824688, 107.46758410736587 4.729422266604656, 119.46778404814201 3.7918396081808488 M91.46312150296829 12.272688731397876 C99.5880555222458 9.5668569167572, 106.81256402000143 7.472186381576197, 120.73012143847542 2.0800083924117962" stroke="#c92a2a" stroke-width="1" fill="none"></path></g><g transform="translate(1166.4613560267853 466.8735255051048) rotate(0 60.590175052941845 1.173281367697541)"><path d="M93.2301034620617 -7.643878614421359 C100.77746453650587 -4.0785508484123065, 107.79488060354149 -3.195951475615212, 119.46778404814201 3.7918396081808488 M91.83041003631693 -8.245232740308515 C99.69775039424798 -5.3400543759226, 106.82184120264539 -1.8250690750296608, 120.73012143847542 2.0800083924117962" stroke="#c92a2a" stroke-width="1" fill="none"></path></g></g><g><g transform="translate(1281.058349609375 507.7482193261508) rotate(0 -61.11229950144684 -0.9927120020219036)"><path d="M-0.8569807067513466 -0.9156955942511558 C-21.238572669384013 -1.5024830562785003, -102.73331825314527 -3.0111936782373654, -123.11856469575841 -3.2033842774717414 M0.893965692864731 1.217960273427889 C-19.028036561618503 0.7259748926874516, -100.53219531828044 -1.8460048178377173, -120.79617596059632 -2.1567492680209037" stroke="#495057" stroke-width="1" fill="none"></path></g><g transform="translate(1281.058349609375 507.7482193261508) rotate(0 -61.11229950144684 -0.9927120020219036)"><path d="M-93.88800132188692 -12.95843615007469 C-100.46054265827594 -11.035957188212842, -105.13556518187326 -8.784033342481223, -122.03901414215159 -3.1986111225145217 M-92.82010627079501 -12.596424892515628 C-102.12287018647612 -9.17366241177622, -109.46830046973794 -4.850635009099939, -120.66044978811931 -2.5186776304202434" stroke="#495057" stroke-width="1" fill="none"></path></g><g transform="translate(1281.058349609375 507.7482193261508) rotate(0 -61.11229950144684 -0.9927120020219036)"><path d="M-94.39212752164421 7.556579305940879 C-100.9025103021255 4.745421590078167, -105.46112222686983 2.260108537860562, -122.03901414215159 -3.1986111225145217 M-93.3242324705523 7.91859056349994 C-102.65971239850857 4.891278845500184, -109.84668518671366 2.7660042916918357, -120.66044978811931 -2.5186776304202434" stroke="#495057" stroke-width="1" fill="none"></path></g></g><g><g transform="translate(988.7016702103839 475.2355108509315) rotate(0.8000372144656875 -60.32987159144676 3.1010593346495625)"><path d="M0.6862270459532738 0.8657352104783058 C-42.91223510438423 3.2298312962535283, -89.1097544924468 4.742382663863092, -121.42079956510258 5.080149464903116 M0.7610563822090626 0.9526256136596203 C-35.260317983709136 0.6646090255290684, -70.97076618086263 3.2984881097324865, -119.69354601257635 5.336383458820819" stroke="#c92a2a" stroke-width="1" fill="none"></path></g><g transform="translate(988.7016702103839 475.2355108509315) rotate(0.8000372144656875 -60.32987159144676 3.1010593346495625)"><path d="M-91.32573558088475 -5.362047589381843 C-100.40829627203861 -1.1747324871053948, -112.12442782908222 2.435918491108678, -121.40581392550064 4.451958690432548 M-91.25090624462896 -5.275157186200529 C-99.9261185480451 -3.3496637917698755, -108.3413502855897 0.9450557233907242, -119.6785603729744 4.7081926843502515" stroke="#c92a2a" stroke-width="1" fill="none"></path></g><g transform="translate(988.7016702103839 475.2355108509315) rotate(0.8000372144656875 -60.32987159144676 3.1010593346495625)"><path d="M-90.36869304980833 15.136832184389947 C-99.93619286934435 11.64632286163329, -112.01091672251934 7.576290769336167, -121.40581392550064 4.451958690432548 M-90.29386371355254 15.223722587571261 C-99.4394357693443 11.063495446647027, -108.13852656707583 9.27824196319583, -119.6785603729744 4.7081926843502515" stroke="#c92a2a" stroke-width="1" fill="none"></path></g></g><g transform="translate(880.8032226562499 509.0171639578682) rotate(0 98 25)"><text x="0" y="18" font-family="Virgil, Segoe UI Emoji" font-size="20px" fill="#c92a2a" text-anchor="start" style="white-space: pre;" direction="ltr">Inform Store about</text><text x="0" y="43" font-family="Virgil, Segoe UI Emoji" font-size="20px" fill="#c92a2a" text-anchor="start" style="white-space: pre;" direction="ltr">new block data</text></g><g transform="translate(372.2758265904017 85.45277186802463) rotate(0 353.2034301757813 21.982160295758916)"><path d="M-0.6703904479742051 -0.41731416285038 C214.45862379817592 2.4033324487126544, 428.7300849437401 1.837503457776375, 706.3445663124324 -0.5955628544092179 M0.019603388011455537 -0.12485729902982712 C246.17136713775878 -0.15636434544275274, 492.27024239873657 -0.7129281519765662, 706.4695003435016 -0.30494910925626756 M707.4127368107439 -1.3374388590455055 C706.5435583307647 11.563064586622653, 707.5059251501464 20.979887307193156, 708.0681478157641 43.971505059727576 M705.5451698116959 -0.6640499047935009 C706.3868750127497 11.098265490955193, 707.2544789107981 21.760685409408964, 706.7345293574036 44.87490154323831 M705.8459564834834 43.77370454115525 C448.72055507330924 46.00410643469764, 190.77685837504913 45.62788315665198, -0.18598006665706635 44.120522988268284 M706.2297450467945 44.03144413126364 C561.1934363270074 44.12378435608652, 416.1017977122006 44.4315485524824, -0.3519162252545357 43.81621132982626 M0.4397033825516701 44.886299743184 C1.2753065714287195 26.50031688839543, 1.2219110617088709 13.462196277259206, -0.5927975997328758 1.067063294351101 M-0.6084692664444447 44.544360051729825 C-0.7055448113718156 29.911686345253962, -0.7610900222101334 17.03287692710818, -0.24324454739689827 0.34245260432362556" stroke="#d9480f" stroke-width="1" fill="none"></path></g><g transform="translate(588.3860560825893 95.98842511858263) rotate(0 108.5 12.5)"><text x="0" y="18" font-family="Virgil, Segoe UI Emoji" font-size="20px" fill="#d9480f" text-anchor="start" style="white-space: pre;" direction="ltr">PubSub - topic: "data"</text></g><g><g transform="translate(707.9182652064733 413.0836799951361) rotate(0 -17.141073062600412 -134.4387008983022)"><path d="M-0.34715025275945666 -0.48985095173120496 C-6.195196126401443 -21.573012304480496, -33.283781877798795 -81.1385219250615, -35.81421191543352 -125.78813857391847 C-38.34464195306824 -170.43775522277545, -18.9542610732573 -244.50341189970231, -15.529730478567785 -268.38755084487315 M1.6714571352023633 -1.7926266467291863 C-3.7306785323005363 -23.26422745957722, -30.488176698904322 -83.1809315098538, -33.519785162983574 -127.43437106264194 C-36.55139362706282 -171.68781061543007, -19.587328583860295 -243.78521621691036, -16.518193649273147 -267.313263963458" stroke="#0b7285" stroke-width="1" fill="none"></path></g><g transform="translate(707.9182652064733 413.0836799951361) rotate(0 -17.141073062600412 -134.4387008983022)"><path d="M-12.050930478881092 -239.10770243705986 C-11.162713661572724 -245.57753423508058, -14.712444233734843 -252.212538840769, -18.46595931998991 -267.9099551323027 M-12.02504793302247 -237.73133129553673 C-12.782788408002007 -249.25024956494983, -15.797162225144671 -259.7987655592853, -17.223427122603884 -267.6382551114232" stroke="#0b7285" stroke-width="1" fill="none"></path></g><g transform="translate(707.9182652064733 413.0836799951361) rotate(0 -17.141073062600412 -134.4387008983022)"><path d="M-32.26926793509922 -242.6203699266362 C-26.517845035578176 -248.19040931586326, -25.225177090734626 -253.9841115207439, -18.46595931998991 -267.9099551323027 M-32.2433853892406 -241.24399878511306 C-25.80390880273495 -251.48526810423013, -21.619959361235225 -260.78317107734915, -17.223427122603884 -267.6382551114232" stroke="#0b7285" stroke-width="1" fill="none"></path></g></g><g transform="translate(688.8105119977679 271.6187874930247) rotate(0 126.50000000000006 25)"><text x="0" y="18" font-family="Virgil, Segoe UI Emoji" font-size="20px" fill="#0b7285" text-anchor="start" style="white-space: pre;" direction="ltr">notify PubSub topic about</text><text x="0" y="43" font-family="Virgil, Segoe UI Emoji" font-size="20px" fill="#0b7285" text-anchor="start" style="white-space: pre;" direction="ltr">updates in store</text></g><g><g transform="translate(430.5505972506744 137.44872854304492) rotate(0 -30.526498539548243 115.73510329709659)"><path d="M0.9774335369467735 0.094261957705021 C-9.273989377907439 38.925804642773514, -50.85539672221503 193.88015002179566, -60.93483935142471 232.37206105403212 M0.03144741450436417 -0.9018544598389417 C-10.4527863430427 37.67750059856968, -52.08206148824169 191.98522914885217, -62.030430616043276 230.84612665148993" stroke="#364fc7" stroke-width="1" fill="none"></path></g><g transform="translate(430.5505972506744 137.44872854304492) rotate(0 -30.526498539548243 115.73510329709659)"><path d="M-64.59984346108835 200.50188235942176 C-62.0682059847809 213.26343250565918, -63.33045622280331 221.9619018861224, -61.5428336646182 231.63856889131088 M-64.20758195968669 201.35681651908806 C-63.57926537801913 210.01797391903443, -63.018346087319735 219.4210393562395, -61.164262754075 231.63499172227998" stroke="#364fc7" stroke-width="1" fill="none"></path></g><g transform="translate(430.5505972506744 137.44872854304492) rotate(0 -30.526498539548243 115.73510329709659)"><path d="M-44.758136920760734 205.7389315241098 C-49.10067157367999 216.84060938656162, -57.264029614716264 223.7175902382161, -61.5428336646182 231.63856889131088 M-44.36587541935907 206.5938656837761 C-49.65935942874183 213.66876323800832, -55.03047386909918 221.50611898018337, -61.164262754075 231.63499172227998" stroke="#364fc7" stroke-width="1" fill="none"></path></g></g><g transform="translate(454.6202741350445 132.35898699079246) rotate(0 83 75)"><text x="0" y="18" font-family="Virgil, Segoe UI Emoji" font-size="20px" fill="#364fc7" text-anchor="start" style="white-space: pre;" direction="ltr">Subscribe to</text><text x="0" y="43" font-family="Virgil, Segoe UI Emoji" font-size="20px" fill="#364fc7" text-anchor="start" style="white-space: pre;" direction="ltr">PubSub topic.</text><text x="0" y="68" font-family="Virgil, Segoe UI Emoji" font-size="20px" fill="#364fc7" text-anchor="start" style="white-space: pre;" direction="ltr">Get informed</text><text x="0" y="93" font-family="Virgil, Segoe UI Emoji" font-size="20px" fill="#364fc7" text-anchor="start" style="white-space: pre;" direction="ltr">as soon as</text><text x="0" y="118" font-family="Virgil, Segoe UI Emoji" font-size="20px" fill="#364fc7" text-anchor="start" style="white-space: pre;" direction="ltr">data is published</text><text x="0" y="143" font-family="Virgil, Segoe UI Emoji" font-size="20px" fill="#364fc7" text-anchor="start" style="white-space: pre;" direction="ltr">on that topic.</text></g><g transform="translate(10 10) rotate(0 585.9429931640625 427.3103877476284)"><path d="M-0.4789649158716202 -0.11545403897762299 C456.3256834745859 3.932424593780361, 913.4167423875044 5.027646590087734, 1172.3485145419836 0.2994111686944962 M1171.7784080177546 0.6873801082372666 C1169.4426559752094 263.9182051229492, 1169.500014812337 529.2477453476221, 1171.6078087478877 853.9107998562712 M1172.2045852512122 854.509391833629 C707.5215539799406 857.5260508331321, 244.66780432487994 857.0315480979942, 0.5676939815282822 854.5769578469652 M-0.48054955899715424 854.8130131436246 C-2.147259026466452 589.2946872022293, -2.098667889534079 324.4866975645448, 0.24442307054996493 0.14603851735591888" stroke="#343a40" stroke-width="1.5" fill="none" stroke-dasharray="3 6"></path></g><g transform="translate(34.098772321428555 839.3766348702568) rotate(0 0.1724679129464306 0.17251150948663962)"><path d="M-0.23776858451199984 -0.7628909988822363 C-0.24781571491221513 -0.9742856411852622, 0.8407890024749595 -0.5916605797492271, 0.9937729262641237 -0.34633488527143885 C1.146756850053288 -0.10100919079365053, 0.9294691727375701 0.6448974479630694, 0.680134958222986 0.7090631679844936 C0.4308007437084018 0.7732288880059179, -0.4293543114589087 -0.011520315886372125, -0.5022323608233814 0.03865943485710664 C-0.5751104101878541 0.0888391856005854, 0.2931024732265498 1.1211946204808108, 0.24286666203614954 1.0101416724453662 C0.1926308508457493 0.8990887244099217, -0.6758182869695611 -0.4413070532953167, -0.8036472279657829 -0.6276582533555604 C-0.9314761689620047 -0.814009453415804, -0.7223341497547545 -0.37477554647515565, -0.5241069839411812 -0.10796552791609554 C-0.3258798181276078 0.15884449064296458, 0.1690306274977178 1.0782998394900738, 0.385715766915657 0.9732018579988002 C0.6024009063335962 0.8681038765075265, 0.7665125663165715 -0.6180750563591605, 0.7760038525664542 -0.7385534168637375 C0.7854951388163369 -0.8590317773683146, 0.6807760206446636 -0.007478339714631188, 0.44266348441495307 0.25033169497133795 C0.20455094818524255 0.5081417296573071, -0.4808409072115821 0.8607821089423872, -0.652671364811809 0.8083067912520774" stroke="#343a40" stroke-width="1.5" fill="none" stroke-dasharray="3 6"></path></g><g transform="translate(26.63064139229911 829.2453046526228) rotate(0 129 12.5)"><text x="0" y="18" font-family="Virgil, Segoe UI Emoji" font-size="20px" fill="#343a40" text-anchor="start" style="white-space: pre;" direction="ltr">elixir-blockclock application</text></g></svg>